<svg xmlns="http://www.w3.org/2000/svg" viewBox="0 0 64 64" fill="none" role="img" aria-labelledby="title desc">
  <title id="title">Praetorius Mark</title>
  <desc id="desc">Orbit iris symbol.</desc>
  <g stroke="#0b1e3c" stroke-width="2" stroke-linecap="round" stroke-linejoin="round">
    <circle cx="32" cy="32" r="21"/>
    <circle cx="32" cy="32" r="5" fill="#0b1e3c"/>
    <path d="M32 12c7 6 12 12 14 20"/>
    <path d="M32 12c7 6 12 12 14 20" transform="rotate(60 32 32)"/>
    <path d="M32 12c7 6 12 12 14 20" transform="rotate(120 32 32)"/>
    <path d="M32 12c7 6 12 12 14 20" transform="rotate(180 32 32)"/>
    <path d="M32 12c7 6 12 12 14 20" transform="rotate(240 32 32)"/>
    <path d="M32 12c7 6 12 12 14 20" transform="rotate(300 32 32)"/>
  </g>
</svg>
